<svg id="Calque_1" data-name="Calque 1" xmlns="http://www.w3.org/2000/svg" viewBox="0 0 190 109.75"><defs><style>.cls-1{fill:#fff;}.cls-2{fill:red;}.cls-3{fill:#ed1c24;}.cls-4{stroke:#000;stroke-miterlimit:10;stroke-width:3px;}</style></defs><title>Harley</title><ellipse class="cls-1" cx="10.3" cy="54.81" rx="10.3" ry="6.87"/><ellipse class="cls-1" cx="179.7" cy="52.52" rx="10.3" ry="6.87"/><path class="cls-1" d="M61.23,82.46s29.76-9.16,75.54,0a79.74,79.74,0,0,1,2.29,32S125.33,144.27,100.14,158c0,0-29.76-13.73-43.49-43.49C56.65,114.51,56.65,96.19,61.23,82.46Z" transform="translate(-4 -48.25)"/><line class="cls-2" x1="30.9" y1="26.19" x2="48.07" y2="41.07"/><path class="cls-3" d="M35,74.37a25.47,25.47,0,0,1,5.16,2.72c.82.5,1.55,1.1,2.33,1.65s1.47,1.19,2.2,1.79,1.41,1.27,2.08,1.93,1.35,1.34,2,2.07a25.74,25.74,0,0,1,3.43,4.72L52,89.4,43.36,82l-8.52-7.52Z" transform="translate(-4 -48.25)"/><path class="cls-3" d="M63.33,55.24,58.13,54c-1.73-.4-3.47-.76-5.21-1.11C49.47,52.13,46,51.47,42.52,51a60.22,60.22,0,0,0-10.31-.72A15.12,15.12,0,0,0,27.5,51a8.69,8.69,0,0,0-3.61,2.46c-2,2.28-3.06,5.58-3.87,8.9s-1.27,6.84-1.8,10.33-.86,7-1.25,10.57-.83,7.08-1.39,10.61h-.2c.37-7.11.69-14.22,1.33-21.31A92.9,92.9,0,0,1,18.21,62c.76-3.46,1.83-7,4.18-9.8a10.29,10.29,0,0,1,4.46-3,17,17,0,0,1,5.31-.8A55.07,55.07,0,0,1,42.8,49.43a144.8,144.8,0,0,1,20.6,5.62Z" transform="translate(-4 -48.25)"/><line class="cls-2" x1="140.78" y1="43.36" x2="157.95" y2="28.48"/><path class="cls-1" d="M144.72,91.54a25.47,25.47,0,0,1,3.42-4.72c.61-.74,1.31-1.38,2-2.07s1.39-1.29,2.09-1.93,1.46-1.21,2.21-1.79,1.51-1.14,2.33-1.65a25.74,25.74,0,0,1,5.16-2.72l.13.15-8.52,7.52-8.65,7.36Z" transform="translate(-4 -48.25)"/><path class="cls-1" d="M129.67,61.47,131.91,60l2.31-1.37c1.55-.9,3.1-1.79,4.69-2.63,3.2-1.61,6.46-3.13,9.82-4.47a52.35,52.35,0,0,1,5.16-1.77,41.87,41.87,0,0,1,5.41-1.24,18.42,18.42,0,0,1,5.86,0,11.7,11.7,0,0,1,5.61,2.61,17.81,17.81,0,0,1,3.7,4.61,31.14,31.14,0,0,1,2.33,5.1,75.76,75.76,0,0,1,2.9,10.47q1.09,5.27,2,10.54c.49,3.54,1.06,7.06,1.43,10.61l-.2,0c-1.49-7-2.94-13.93-4.69-20.82a92.61,92.61,0,0,0-3.15-10.17c-1.29-3.27-2.91-6.56-5.58-8.86a10.08,10.08,0,0,0-4.68-2.2,16.64,16.64,0,0,0-5.26,0A54.76,54.76,0,0,0,149.25,53a144.56,144.56,0,0,0-19.49,8.62Z" transform="translate(-4 -48.25)"/><path class="cls-4" d="M131,88.18c-13.73,2.29-22.52,7.19-27.19,11.31a6.73,6.73,0,0,1-7,1.26c-.73-.29-1.56-.66-2.48-1.12C78.76,90.77,71.53,88.18,64.66,88.18c0,6.87,7.59,34.1,13.73,32,6.87-2.29,16-11.45,16-11.45a7,7,0,0,1,9.16,0c2.29,2.29,3.43,4.28,13.16,10.15S131,88.18,131,88.18Z" transform="translate(-4 -48.25)"/><path class="cls-1" d="M77.44,116.72c-3.61-1.19-13.25-25.05-9.64-26.25s26.5,11.93,28.91,14.32C96.71,104.79,81,117.91,77.44,116.72Z" transform="translate(-4 -48.25)"/><path class="cls-1" d="M118.87,115.93c3.51-1.13,12.87-23.73,9.36-24.85s-25.74,11.3-28.08,13.56C100.14,104.63,115.36,117.06,118.87,115.93Z" transform="translate(-4 -48.25)"/></svg>