<svg id="Calque_1" data-name="Calque 1" xmlns="http://www.w3.org/2000/svg" viewBox="0 0 197.59 262.47"><defs><style>.cls-1{isolation:isolate;}.cls-2{fill:#f2f2f2;}</style></defs><title>HC_logo_white</title><g class="cls-1"><path class="cls-2" d="M69.84,118.26l4.68-16H59.4l-24.66,83H4.5L59,0H89.28l-23,78.48h15.3L86.4,62.1l19.26,30.06Zm36.72-21.6-26.1,88.56H49.86l17.82-59.94Zm-18.72-40L104.58,0H135L108.9,88.92Z" transform="translate(-4.5 0)"/></g><g class="cls-1"><path class="cls-2" d="M187,128.37l-29.88,6.84,10.08-34H156.73A6.59,6.59,0,0,0,153,102a5.92,5.92,0,0,0-1.89,3.33l-36,122.76q-1.08,3.6.36,5t4.68,1.44H153l-15.12,27.9H102.55a29.15,29.15,0,0,1-9.63-1.53,17.64,17.64,0,0,1-7.38-4.77,16.21,16.21,0,0,1-3.87-8.37q-.9-5.13,1.26-12.33l42.3-144.36q2.52-8.28,7.29-11.07t12.33-2.79h57.24Z" transform="translate(-4.5 0)"/></g></svg>