<svg id="Calque_2" data-name="Calque 2" xmlns="http://www.w3.org/2000/svg" viewBox="0 0 132 125.58"><defs><style>.cls-1{fill:#39b54a;}.cls-2,.cls-3{fill:#fff;}.cls-2{stroke:#000;stroke-miterlimit:10;stroke-width:2px;}.cls-4{fill:red;}</style></defs><title>Joker</title><path class="cls-1" d="M137,95l25-40-13,3s9-16,10-18c0,0-13,12-28,5,0,0-13-20-51-12a9.79,9.79,0,0,1,1-7s-4,0-18,13c0,0-17,22-26,15,0,0-7-5-7-6,0,0,2,17,19,39,0,0,3-13,13-21,0,0-5-4-5-6,0,0,14-16,15-8,0,0,1,5,0,8A53.27,53.27,0,0,0,92,80s32-36,41-21l-4,7s-5,6,0,14C129,80,135,93,137,95Z" transform="translate(-30 -26)"/><path class="cls-2" d="M99,103s27-19,29-17-9,20-11,21S106,105,99,103Z" transform="translate(-30 -26)"/><path class="cls-3" d="M54,105s19,27,25,28,20,2,25,0c7-1,23.79-28.39,23-27-4.5,7.94-14.59,40.44-18,43,0,0-20,4-33-1C76,148,53,105,54,105Z" transform="translate(-30 -26)"/><path class="cls-4" d="M54,104.91l4.89,6.23,4.95,6.12c1.67,2,3.36,4,5.11,6s3.51,3.87,5.4,5.63a26,26,0,0,0,2.94,2.41,6.26,6.26,0,0,0,1.52.8,2.26,2.26,0,0,0,.35.09l.48.07,1,.13c2.57.34,5.18.55,7.77.72s5.21.25,7.8.21a26.18,26.18,0,0,0,7.54-.92l.1,0h.05a5.53,5.53,0,0,0,2.1-.88,17.66,17.66,0,0,0,2-1.5,43.47,43.47,0,0,0,3.64-3.58,101,101,0,0,0,6.52-8c2-2.77,4-5.59,5.9-8.48l1.4-2.17.69-1.09.35-.55.18-.28.06-.08c-.38-.19,1-.06.59.35l0,0,0,0-.08.14a51.21,51.21,0,0,0-2.14,4.66c-2.54,6.39-4.74,12.93-7,19.44-1.16,3.25-2.34,6.49-3.59,9.72-.63,1.61-1.27,3.22-2,4.82-.36.8-.73,1.59-1.15,2.38-.21.4-.43.79-.69,1.19a5,5,0,0,1-1,1.23l-.15.13-.23,0c-2.79.54-5.56.92-8.36,1.2s-5.61.45-8.43.45c-5.62,0-11.36-.54-16.77-2.62l-.36-.14-.18-.34c-1.89-3.56-3.72-7.15-5.56-10.74L64,127l-5.33-10.86c-.88-1.82-1.73-3.65-2.57-5.48l-1.24-2.76-.58-1.4-.27-.71-.12-.37,0-.19a.76.76,0,0,1,0-.11.39.39,0,0,1,0-.07.21.21,0,0,1,0-.07A.14.14,0,0,1,54,104.91Zm-.09.18s.11,0,.1,0v0l0,.08.06.17.14.34.32.68.68,1.35,1.4,2.68,2.87,5.32,5.79,10.61L76.9,147.52l-.54-.47a36.5,36.5,0,0,0,7.86,1.87,61.79,61.79,0,0,0,8.18.53c2.74,0,5.49-.1,8.24-.33s5.5-.57,8.17-1l-.38.17a3.64,3.64,0,0,0,.61-.74c.22-.33.42-.68.62-1,.4-.72.77-1.49,1.13-2.26.71-1.54,1.39-3.12,2.05-4.7,1.32-3.17,2.56-6.38,3.82-9.59,2.54-6.41,5-12.87,7.71-19.22.69-1.59,1.38-3.17,2.23-4.71l.08-.14,0,0h0c-.36.39,1,.54.58.36l0,0-.18.27-.35.54-.71,1.08-1.43,2.16c-1.93,2.86-3.86,5.72-5.89,8.52s-4.09,5.57-6.33,8.23a44.5,44.5,0,0,1-3.59,3.81,18.6,18.6,0,0,1-2.08,1.68,6.74,6.74,0,0,1-2.6,1.17l.16,0a17,17,0,0,1-4,1c-1.33.18-2.66.3-4,.35-2.66.11-5.31.06-8-.09s-5.28-.4-7.91-.77l-1-.15-.49-.08a4.12,4.12,0,0,1-.6-.15,7.84,7.84,0,0,1-2-1,24.92,24.92,0,0,1-3.1-2.64A112.33,112.33,0,0,1,63,118q-2.4-3.14-4.66-6.37C56.85,109.45,55.31,107.24,54,105.09Z" transform="translate(-30 -26)"/><path class="cls-2" d="M86.24,103s-27-19-29-17,9,20,11,21S79.24,105,86.24,103Z" transform="translate(-30 -26)"/></svg>