<svg id="Calque_1" data-name="Calque 1" xmlns="http://www.w3.org/2000/svg" viewBox="0 0 315.9 536.12"><defs><style>.cls-1{fill:#8c2e2e;}.cls-2{fill:#fff;}</style></defs><title>Venom</title><polygon class="cls-1" points="79.29 350.14 69.4 316.52 118.27 337.14 154.43 333.33 208.39 330.36 248.79 325.56 245.96 341.66 224.49 390.53 191.72 480.93 179.29 516.25 131.27 517.66 117.99 467.58 103.3 411.16 93.69 382.06 79.29 350.14"/><path class="cls-2" d="M493.31,82.84s-26.31,26.31-34.2,45.38c0,0,1.45-21,0-24.75,0,0,40.23-72.57,58.83-74.05,0,0,37.21,45.4,54,83.73,0,0,8.56,74.43,7.44,96.38,0,0-8.93,36.1-16,40.19,0,0-3,4.47-10.79,4.47L539.16,256s-6.33,0-7.44,4.47L510.88,294s-6,4.09-9.68,5.21a192.52,192.52,0,0,1-28.28,5.58s-13.77-1.49-18.61-4.47l-10-1.12v3.72l-7.44,14.89s-2.23-35,0-39.82l12.65,1.49s1.86.37,3.35-4.09c0,0,12.28-61.77,12.28-65.87,0,0-.31-7.21,8.31-10.44,0,0,24-8.62,23.85-35.86,0,0,5.08-39.86,1.39-56.33,0,0-2.15-4.31-4.92-20.47Z" transform="translate(-263.55 -29.42)"/><path class="cls-2" d="M349.68,82.84s26.31,26.31,34.2,45.38c0,0-1.45-21,0-24.75,0,0-40.23-72.57-58.83-74.05,0,0-37.21,45.4-54,83.73,0,0-8.56,74.43-7.44,96.38,0,0,8.93,36.1,16,40.19,0,0,3,4.47,10.79,4.47l13.4,1.86s6.33,0,7.44,4.47L332.12,294s6,4.09,9.68,5.21a192.52,192.52,0,0,0,28.28,5.58s13.77-1.49,18.61-4.47l10-1.12v3.72l7.44,14.89s2.23-35,0-39.82l-12.65,1.49s-1.86.37-3.35-4.09c0,0-12.28-61.77-12.28-65.87,0,0,.31-7.21-8.31-10.44,0,0-24-8.62-23.85-35.86,0,0-5.08-39.86-1.39-56.33,0,0,2.15-4.31,4.92-20.47Z" transform="translate(-263.55 -29.42)"/><path class="cls-2" d="M308.82,303.59s20.93,23.46,23.27,29.08c0,0,3.12-3,6.4-10.15,0,0,1.87-1.87,2.34,2.81,0,0,7.34,14.83,8,20.61,0,0,11.71-20.29,15-22.48,0,0,4.21-2.19,13.74,33.56l1.4,1.4s4.37-18.89,6.24-20.61l16.08,19.51s9.05-18.73,12-19c0,0,3.43-1.25,3.9,2.5l11.24,19.36L440.89,340s3.75-6.87,6.4.94l7.81,15.3s.78,1.56,2.65-.78c0,0,11.55-15.92,12.18-18.58,0,0,1.09-2.5,2.19.94l2.81,14.36s8.43-22.63,10.93-25c0,0,3.12-6.24,6.09.62l10.46,15.45,8.12-22.48s1.09-1.87,2.5.94l6.09,9.37,21.23-27.52s1.4-.89,1.4,3l.94,33.09s-11.86,39.65-17.48,47.92l-2-36.37s-1.25-5-3,2c0,0-3.9,27.32-7.34,34.34,0,0-4.21-23.26-4.37-26.54,0,0-1.56-1.72-3.12,4.53,0,0-11.08,31.53-15.45,35.12,0,0-8-28.41-11.08-30.44L478.36,385l-19.67,37,1.4-37.31s-.94-14.52-3.43-17.48c0,0-1.4-6.24-3.75.78l-8.74,20.76s-8.27-17.8-15.61-23.57c0,0-1.56-.47-3.59,3.75L414.2,391l-11.86-24s-1.56-1.72-3,2.19c0,0-6.24,17.17-3.59,51.67,0,0-8.9-14.67-19.67-40.9,0,0,0-5.93-3.75.16l-8.74,20.61s-.16,3.43-2.5-2.19c0,0-13.58-29.82-14.21-39,0,0-1.56-1.72-2.34,1.4,0,0-3.12,24.66-2.5,28.88,0,0-7.18-11.93-11.71-39,0,0-1.56-1.72-2.34.47l.78,37.46s-18.14-35.75-20-47.14Z" transform="translate(-263.55 -29.42)"/><path class="cls-2" d="M365.08,428.21s-5-2.92-4.49-16.29c0,0-6.85-.94-7.79,13.46,0,0,1.65,9.21,4.72,9.21,0,0,3.31,1.18,4.72,0,0,0-5.79,13.32-1.73,23.79,0,0,2.85,5.69,9.35,5.59,0,0-5.39,27.35,0,46.15,0,0,2,6.61,13.62,3.25,0,0-4.47,31.51,9.15,51.74,0,0,7.22,2.64,12.1-5.29a23.25,23.25,0,0,0,19.31-.91s5.69,4.17,17,.2c0,0,7.52,5.59,10.67,5.49,0,0,5.79-.51,6.2-7.22,0,0,.71-34.87-1.22-38.63,0,0,14,8.23,17.28-1.93,0,0,5.79-28.67.91-45.75,0,0,11.79,1.42,11.28-9.15,0,0,1.12-16.47-2-20.13,0,0,6.2,5.18,7.32-1.83,0,0,3-14.69,0-18a5.33,5.33,0,0,0-4.47-2.41s-2.36,16-5.71,17.1l-1.71-2.16s-3.53,24.3-8.72,26.74c0,0-1.75-4.68-1.75-6.3,0,0-4.17,33-14.23,49,0,0-.71-9.86-2.34-11.39,0,0-2.64,32.94-8,44.32,0,0-6.81-24-9-26.33,0,0-8.34,24.7-12,25.31,0,0-6.3-10.88-11-30.29,0,0-9.66,30.8-11.69,34.36,0,0-1.22.51-2.64-.91,0,0-5.18-2.44-7-48l-1.93,4.78S378,475.86,377.6,447.3l-4,6.51s-7-16.16-6.3-26.84Z" transform="translate(-263.55 -29.42)"/></svg>